<?xml version="1.0" encoding="UTF-8"?>
<svg id="Layer_3" data-name="Layer 3" xmlns="http://www.w3.org/2000/svg" viewBox="0 0 732.72 487.9">
  <path d="M178.35,154.08c7.7,18.86,26.68,32.1,47.52,29.77,2.59-.29,15.06-4.49,15.6-3.9l.5,3c3.1-5.75,8.36-8.59,12.83-13.12,1.23-1.25,9.37-12.33,10.67-10.87.2,19.37-1.12,38.94,3,57.99-2.19,2.06-29.35-13.3-33.99-14.99l-14.78,76.4c.22,1.19,1.53,1.81,2.43,2.45,20.08,14.05,49.03,23.78,69.26,37.74s7.31,46.55,4.25,67.09c-2.25,15.08-3.34,37.9-7.45,51.55-.78,2.59-2.47,5.71-4.2,7.8l-9.52,6.97c13.5-.18,27-1.66,40.54-1.04,3.69.17,15.54.9,17.53,2.47,4.93,3.89,3.56,11.46-3.53,10.62-77.7-1.53-155.63,3.69-233.06-1.03-13.58-.83-28.29,3.3-42.03,2.03s-10.42-14,4.05-14.04c1.7,0,3.38.99,5.01.99,8.57,0,16.99-.11,25.48.99l-8.93-4.55c-24.53-20.93-2.41-36.03,13.41-51.46s34.34-30.97,50.39-47.61l11.14-53.37c2.38-.54,1.61.42,2.22,1.3,11.18,16.22,17.54,16.13,30.72,27.24,1.75,1.48,3.19,3.3,2.84,5.69-5.09,12.54-3.88,34.35-12.9,44.16l-79.89,76.6c9.49.25,19.05-.29,28.54-.03,2.37.06,4.55,1.03,6.92,1.08,25.22.53,59.31-3.05,83.07-.06,3.15.4,5.21,2.55,7.11,2.74,2.72.28,7.54-2.36,10.86-2.73,8.92-.98,19.4.74,28.51,0-18.49-12.06-12.37-28.79-9.71-47.2,2.74-18.93,7.15-37.67,9.56-56.65-14.47-7.21-29.38-14.13-43.52-21.97-12.86-7.14-43.01-23.33-50.77-34.23-2.55-3.58-5.15-10.07-5.55-14.44,1.94-28.19,11.16-55.48,14.97-83.49-13.63,5.99-29.89,8.33-43.51,13.98-6.15,2.55-5.89,2.46-8.5,8.5-7.18,16.64-11.78,64.79-39.96,54-18.01-6.9-9.13-26.97-5.04-40,3.48-11.08,13.04-42.86,19.98-50.02,2.43-2.51,5.33-4.1,8.51-5.49,15.73-6.9,40.7-13.43,57.77-18.23,2.13-.6,10.38-3.42,11.64-2.61Z"/>
  <path d="M366.22,96.17c7.37-1.24,20.44,10.07,27.58,13.96,17.59,9.58,27.27,9.97,45.93,14.07,6.98,1.53,13.07,4.43,13.79,12.21,1.66,18.1,1.31,56.06-2.76,73.33-8.54,36.21-38.12,72.37-71.6,88.4-14.95,7.16-29.9-3.62-42.21-12.16-27.23-18.89-54.02-56.6-56.51-90.49-1.07-14.56-1.63-45.03.02-59.06,1.5-12.77,19.08-11.67,28.23-13.77,22.29-5.11,38.12-15.29,57.54-26.49ZM360.47,138.96h16c-.32.98,1,2.17,1,2.5v120c0,.17-2.54,3.46.48,2.49,4.42-1.42,17.1-12.59,20.54-16.46,23.97-26.96,27.94-58.8,26.03-93.95-6.6-1.85-13.53-2.83-20.04-5.1-8.6-3-31.46-17.58-37.54-17.52-3.86.04-14.19,7.44-18.46,9.56-12.39,6.14-24.97,11.49-39.01,12.49.11,19.46-1.67,37.4,4.28,56.21,7.27,23,24.93,43.22,45.25,55.75l1.46-125.97Z"/>
  <path d="M198.86,162.55c-35.29-30,12.32-85.32,47.51-51.99,33.16,31.41-13.37,81.01-47.51,51.99Z"/>
  <path d="M74.77,328.66c-1.16-.98-2.15-3.59-2.34-5.16-.63-5.18-1.45-24.09-.95-29.05,1.15-11.53,11.63-12.07,12.98-4.97.92,4.85.69,26.61.04,32-.58,4.84-5.11,11.07-9.72,7.17Z"/>
  <path d="M110.23,286.2c1.1,1.1,1.15,3.67,1.28,5.22.6,7.12.94,25.34-.1,31.98-1.24,7.96-10.56,8.18-11.92,1.04-.84-4.42-.73-29.27.04-33.92s6.85-8.17,10.7-4.32Z"/>
  <path d="M56.22,316.69c-4.44,4.17-8.9,0-9.66-5.32-1.05-7.33-2.04-21.98-.01-28.84,1.4-4.74,6.37-6.93,10.46-3.6,4.29,3.5,1.49,7.44,1.42,11.48-.09,5.65,1.42,22.87-2.21,26.27Z"/>
  <path d="M45.57,451.9c5.56.57,13.24,3,11.56,10.34-.59,2.58-21.8,2.48-25.05-.34.3,4.72,6.79,7.68,6.88,12.48.09,4.52-5.12,9.18-5.91,13.52-4.83-1.85-6.79-6.38-9.96-9.52-4.55-4.5-22.34-19.06-23.04-24.06s4.65-6.54,7.54-9.39c4.57-4.5,16.72-19.64,21.97-20.11,3.23-.29,9.64,2.11,11.02,5.11,2.88,6.23-11.99,16.13-14.5,21.49-.27,3.05,1.08.48,1.49.48,5.65,0,12.57-.55,18,0Z"/>
</svg>