<?xml version="1.0" encoding="UTF-8"?>
<svg id="Layer_2" data-name="Layer 2" xmlns="http://www.w3.org/2000/svg" viewBox="0 0 650.58 436.45">
  <path d="M458.83,66.41c-19.38-1.97-33.1,12.61-27.31,31.82,4.07,13.5,18.7,18.38,27.64,27.36.88.88,2.18.87,1.67,2.81-25.58,7.2-49.47,18.64-74.03,28.48-22.84,9.15-48.35,21.1-70.97,29.03-4.97,1.74-9.58,1.4-15.03,3.97-21.56,10.17-49.26,41.89-70.65,56.35-18.43,12.47-24.4,9.74-41.21-2.42-24.22-17.51-46.89-37.25-70.63-55.37-8.89-6.79-33.16-21.08-38.3-28.7-10.21-15.11-.9-38.9,19.25-36.24,10.8,1.43,15.59,9.11,23.11,14.88,27.54,21.13,55.08,42.34,83.79,61.87,13.97-10.81,25-25.06,38.67-36.35,3.8-3.14,15.56-10.15,17.46-12.54s3.26-15.4,5.52-20.48c7.14-16.06,32.58-29.01,49.54-30.46,11.98-1.02,10.5,1.74,21.79-4.21,5.67-2.99,11.54-5.92,17.34-8.66,31.57-14.94,63.94-28.98,98.39-35.71l3.97,14.56Z"/>
  <path d="M598.59,316.66c.8.75,3.3,6.89,3.3,8.25-.01,13.51-23.6,13.69-32.6,13.54-70.45-1.19-141.62-1.1-211.91-1.09-99.18.01-198.48.47-297.59-.41-10.84-5.04-10.69-14.1-2.02-21.1,103.12-.92,206.42-.31,309.61-.39,72.72-.06,145.26-.62,217.99,0,3.34.03,10.16-1.65,13.22,1.2Z"/>
  <path d="M49.18,384.06c-4.31-4.31-6.38-14.26-.36-17.15,3.11-1.49,16.85-.26,21.54-.46,8.34-.35,16.5-1.15,25-1.08,155.2,1.17,311.16-.54,467,0,17.09,1.5,13.31,17.94.27,22.36-162.28,2.97-325.25-1.59-487.36.64-9.73.13-17.71,4.07-26.1-4.32Z"/>
  <path d="M276.82,103.43c.73.93-7.02,5.6-8.01,6.48-10.32,9.16-15.55,21.67-19.58,34.59-9.97-.18-19.06-4.28-28.58-6.4-15.13-3.36-34.55-5.39-48.78-10.22-11.05-3.75-23.32-17.81-32.57-25.43-21.49-17.7-43.22-35.19-65.12-52.38-14.12-15.45.04-44.48,21.62-37.12,4.41,1.5,7.89,4.69,11.5,7.5,19.43,15.08,37.74,33.45,57.05,48.95,4.42,3.55,17.53,14.68,21.75,16.25,4.92,1.84,15.69,2.07,21.75,3.25,17.63,3.45,35.14,7.68,52.75,11.25,5.27,1.07,10.95.84,16.22,3.29Z"/>
  <path d="M456.6,70.66c8.44-.98,7.47,4.12,11.82,8.66,10.73,11.18,22.1,8.77,34.3,14.7,15,7.3,30.5,21.48,45.82,29.18,28.18,2.27,60-2.79,87.71,1.29,20.08,2.96,18.42,36.09-.97,40.86-21.99.29-44-.19-65.99.01-10.33.09-19.87,2.4-30.71-.21-8.1-1.95-29.58-17.74-37.67-23.33-14.67-10.15-35.85-23.95-49-35-7.13-5.99-10.66-14.06-8.64-23.47,1.41-6.59,6.65-11.92,13.33-12.69Z"/>
  <path d="M142.62,417.71c75.34-1.86,150.56.77,225.75.75,41.16,0,87.16-3.98,127.99-1.09,5.6.4,10.75.43,12.7,6.32,2.09,6.31-3.05,9.77-8.21,12.25l-388.57.51c-11.75-1.1-14.08-9.95-5.45-17.53,11.89-.4,23.9-.92,35.78-1.22Z"/>
  <path d="M495.57.65c44.83-7.56,64.35,52.49,26.79,73.79-44.13,25.04-79.96-42.66-37.86-68.86,2.57-1.6,8.21-4.46,11.06-4.94Z"/>
  <path d="M516.83,90.43c17.64-4.09,36.19-22.06,37.99-40.52.4-4.06-1.29-13.12,1.46-15.54s12.48-6.96,16.47-9.53c7.49-4.83,22.02-16.43,30.04-17.96,24.69-4.72,34.34,26.62,14.96,39.96l-82.63,54.44c-2.07.55-15.57-8.79-18.28-10.85Z"/>
  <path d="M429.68,15.55c7.1,20.31-19.09,13.96-30.31,13.81-63.48-.84-126.85.33-190.01,1.09-7.43.09-26.51.95-32.52-1.56-6.54-2.73-3.81-12.7,2.43-13.53,25.74.47,51.36-1.07,77.1-1,28.74.08,57.98.08,86.91,0,28.91-.08,57.55.74,86.4,1.18Z"/>
  <path d="M294.6,253.69c9.35-1.43,20.89.87,30.78.78,38.87-.36,78.15-.68,116.91-1.09,9.5-.1,23.09-1.03,32.06.02,5.24.62,8.88,5.51,6.35,10.37-4.15,7.98-14.8,6.85-22.36,6.64-40.5-1.17-81.43-1.07-121.97-2.03-11.16-.26-25.5,1.35-36.06.06-9.03-1.1-18.36-12.82-5.71-14.75Z"/>
  <path d="M340.12,215.72c1.54-1.25,3.31-1.18,5.17-1.34,16.21-1.38,35.42.34,52.08.08,39.59-.62,79.27-.76,119.01-.09,5.14.94,7.78,5.68,5.31,10.42-4.73,9.1-20.3,4.7-28.32,4.58-48-.71-96.07.61-144.07.07-6.16-.55-16.53-7.78-9.19-13.72Z"/>
  <path d="M226.53,52.62l139.81-.22c11.89,1.4,4.46,13.9-5,15.04h-131.05c-8.27-.97-12.11-10.63-3.77-14.82Z"/>
  <path d="M52.54,253.63l97.76-.19c4.25.72,6.92,11.9,4.11,14.07l-82.05,1.95c-6.92-.74-17.72,1.82-23.52-2.57s-1.84-11.12,3.69-13.26Z"/>
</svg>