<?xml version="1.0" encoding="UTF-8"?>
<svg id="Layer_1" data-name="Layer 1" xmlns="http://www.w3.org/2000/svg" viewBox="0 0 183.81 168.16">
  <g>
    <path d="M150.1,57.91c2.15-5.67,4.92-11.36,7.84-16.67,2.75-5,9.23-18.68,14.63-19.38,14.03-1.83,12.63,8.97,8.07,18.08-4.98,9.94-11.94,22.84-17.73,32.27-4.25,6.91-5.87,11.76-14.79,8.2-5.02-2.01-25.33-15.61-28.54-15.51l-1.45.48-13.76,21.05c4.87,7.14,36.74,20.19,38.55,26.2,1.15,3.82-1.61,10.78-2.78,14.81-2.65,9.14-8.51,27.36-12.51,35.49s-18.6,6.41-19.5-2.59c-.6-6.04,8.25-26.25,9.55-34.38.19-1.18.94-2.72.28-3.85-11.29-5.35-22-13.63-33.83-17.19-.26,6.13-8.73,36.32-13.7,37.81l-55.83.22c-10.71-.81-12.44-18.53-2.53-21.58,4.9-1.51,24.25-.69,30.6-.49,4.83.16,10.18,2.04,15.35.93,1.4-6.96,1.31-14.07,2.4-21.1,3.37-21.72,14.02-36.57,24.87-55.13.72-1.24,1.85-2.14,2.82-3.16l-16.34-9.4c-6.4,3.52-15.65,20.94-22.88,19.73-6.29-1.05-9.49-9.17-7.21-14.79.52-1.27,10.24-13.16,11.94-15.05,3.22-3.59,11.01-12.64,15.76-11.82l80.74,46.83Z"/>
    <path d="M130.89.14c29.19-3,28.25,41.88-3.04,36.53-17.08-2.92-19.54-34.21,3.04-36.53Z"/>
  </g>
  <path d="M65.06,64.86c-21.23-.41-42.71,1.25-63.8-1.09l-.73-5.92,63.08-1.93c4.64.83,1.3,5.69,1.45,8.94Z"/>
  <path d="M56.12,74.91l-1.67,8.04c-7.72-1.16-49.54,1.84-53.18-1.19-.17-.15-1.09-3.83-1.06-4.42.32-6.21,12.55-2.48,16.37-2.39,13.16.31,26.39-.31,39.55-.04Z"/>
  <path d="M51.97,100.77l-48.36,1.14c-3.3-.21-4.77-7.03-2.56-8.56,2.98-2.07,23.48.54,28.51.61,7.86.11,15.96-1.73,23.12-.12l-.72,6.93Z"/>
</svg>